<svg id="AngelaDavis" xmlns="http://www.w3.org/2000/svg" viewBox="0 0 314.72 304.26"><title>AngelaDavis</title><polygon id="Face" points="152.4 254.33 140.54 235.39 135.92 217.06 132.69 209.51 134.07 193.5 135.77 185.18 139.62 175.63 144.24 170.4 152.71 166.24 162.41 163.47 169.19 158.39 179.2 153 196.75 151 203.53 147.3 211.38 144.68 219.39 146.38 228.32 153.92 234.02 151.92 238.64 152.84 244.03 158.39 244.49 165.47 249.57 181.64 251.42 192.11 247.79 221.15 241.87 240.75 236.6 254.33 231.69 262.22 226.76 267.87 220.14 271.8 210.81 274.5 202.95 274.5 189.94 272.29 180.11 268.36 172.44 266.64 162.92 261 152.4 254.33"/><polygon id="Neck" points="138.3 255.15 136.08 273.44 153.69 289.25 171.51 300.06 193.93 304.26 204.94 301.66 214.95 297.66 217.75 292.65 219.95 278.04 220.14 271.8 210.81 274.5 202.95 274.5 191.68 272.59 180.11 268.36 172.44 266.64 152.4 254.33 138.3 255.15"/><polygon id="Lips" points="171.96 231.9 182.7 230.5 187.43 229.49 193.45 228.85 196.51 227.54 199.75 227.17 202.71 226.43 205.68 226.43 208.55 227.17 210.4 225.78 212.81 224.76 216.52 224.02 220.14 224.02 223.56 224.39 227.64 225.78 230.42 226.34 233.2 227.96 229.03 229.58 226.57 229.34 224.31 229.34 223.05 229.03 219.6 228.85 215.29 229.08 210.64 230.58 209.83 230.91 205.21 231.04 201.27 232.26 200.14 232.62 196.9 232.78 194.72 233.39 194.33 234.56 191.09 233.9 188.13 234.56 184.09 235.04 180.01 235.04 175.2 234.56 173.07 234.03 178.11 236.62 183.16 238.1 187.15 239.12 191.68 240.07 195.3 241.07 199.01 241.44 202.57 241.99 205.4 241.99 207.44 241.99 210.4 241.44 213.74 240.28 216.15 240.28 218.19 239.21 220.6 238.19 222.54 237.27 223.31 235.95 225.63 233.95 226.47 232.82 228.47 231.52 230.51 230.13 231.81 229.39 233.06 228.34 232.68 230.01 231.69 232.16 231.03 234.56 229.87 237.2 228.96 239.92 228.05 241.99 226.76 243.89 224.83 245.87 223.01 247.53 220.14 249.01 217.23 249.92 215 250.66 211.94 251.32 209.38 251.32 206.41 251.82 203.68 251.82 200.95 251.82 197.9 251.24 195.67 250.58 192.78 249.84 190.38 248.93 187.49 247.69 184.68 245.21 182.28 243.56 179.72 241.33 177.08 239.76 175.01 237.92 173.28 236.21 171.96 234.14 170.88 232.49 171.96 231.9"/><polygon id="Teeth" points="188.13 235.34 189.31 239.4 191.68 240.07 194.39 238.89 194.39 235.34 194.99 238.73 195.9 240.07 198.37 240.28 200.74 240.28 201.43 239.46 201.43 237.49 201.11 235.89 200.84 234.57 201.43 233.97 201.43 235.07 201.7 236.44 201.7 238.04 201.93 239.27 203.33 240.28 207.73 240.28 210.76 239.32 210.04 233.97 211.32 233.25 211.96 235.24 211.96 237.48 213.36 238.78 216.94 238.34 219.63 238.11 220.41 236.76 220.41 234.31 219.4 231.62 221.64 235.95 223.31 235.95 224.19 233.88 224.19 232.29 224.19 230.69 224.56 231.56 224.42 233.03 224.56 233.76 224.84 233.97 225.63 233.95 226.47 232.82 226.76 231.29 226.76 230.27 226.57 229.34 224.31 229.34 223.05 229.03 219.6 228.85 218.32 229.08 215.29 229.08 212.93 229.98 210.64 230.58 210.98 232.76 211.17 233.14 210.03 233.81 209.83 230.91 205.21 231.04 202.84 231.77 201.27 232.26 201.22 233.56 200.14 232.62 196.9 232.78 194.72 233.39 194.33 234.56 192.82 233.95 191.09 233.9 189.07 234.56 188.13 235.34"/><polygon id="Hair" points="71.02 24.78 86.55 11.83 104.67 11.83 121.31 3.33 140.17 0 170.87 0 196.01 2.96 215.98 6.29 238.17 14.05 249.64 21.08 259.99 30.69 277.74 46.97 286.62 63.98 292.17 71.37 298.08 86.53 308.07 108.35 311.39 120.93 314.72 143.12 314.72 164.94 309.18 181.58 304 203.18 296.6 220.04 287.73 233.35 267.39 240.75 248.53 240.75 241.87 240.75 247.79 221.15 250.34 203.18 251.42 192.11 249.57 181.64 246.96 173.17 244.49 165.47 244.03 158.39 238.64 152.84 234.02 151.92 228.32 153.92 219.39 146.38 211.38 144.68 203.53 147.3 196.75 151 179.2 153 169.19 158.39 162.41 163.47 152.71 166.24 144.24 170.4 139.62 175.63 135.77 185.18 134.07 193.5 132.69 209.51 135.92 217.06 138.54 228.15 140.54 235.39 144.85 242.32 152.4 254.33 133.47 255.43 120.43 255.43 109.22 257.52 98.79 261.43 82.88 263.52 72.45 263.52 53.4 263.52 43.74 254.6 27.27 239.27 15.9 218.25 8.04 196.1 0 175.65 0 152.36 3.98 122.82 8.04 100.09 15.34 78.51 30.81 48.42 44.05 32.7 57.3 27.73 71.02 24.78"/></svg>