<svg id="Panther" xmlns="http://www.w3.org/2000/svg" viewBox="0 0 267.5 175.29"><title>blackPanthersLogo</title><path id="Body" d="M166.52,223.24l-12.12,4.54-32.58-2.27-12.88-2.27V211.12l9.09-6.06h37.12l-9.09-10.61H122.58l-13.64,6.06-9.09,10.61v11.36l5.3,9.09,10.78,2.87,10.78,3.47h10.42l14.81,1.83h6.76l-1.46,4.38-2.56,4.48-.73,5.32-1.28,1.54h-4L141.88,258,134,265.51l-4.38,17.73-4,3.66-2.92,4.75L121,298.41l.74,5.85,4.75,3.84,3.47,3.11,6.76,1.46h8.6l3.29-3.66,2.74-3.29,5.12,1.47,3.29,2.19,6.72-2,5.71-4.2,5.66-3.11,4.39-2.2,4.75-4.2,5.12-2.19,10.78-7.5,3.84-1.83,4.39,1.65h6.4l6.76-4.57,4.39.91,2.74,4.57,2.74,4.39,4.75,4.94,3.11,1.82,3.29,1.47-1.64,4.75-.55,6.58-1.28,6.4-4.39,4.38-.91,4.39,3.43,5.12,3.33,2.74,2,1.65,1.28,2.55-1.09-7.31,2.74-2.92,2.56,3.29,2.92,2.92,1.1-4.38L258,325.1l4,3.47,4-.73v-7.49l2.37-2.38,2.2,2.56,3.29,2H277l1.82-7,3.48.37,1.82,1.83,2-.73v-7.31l3.29.54,3.83,1.28v-4l-1.09-3.84-3.66-4.93-3.29-3.11-6.58-5.48-3.47-4.57-.19-5.49,5.85,3.11,3.66,5.85,4.57,5.48,2.56,2.2,6.58,2h4.75l5.3-4.75,5.67-3.84,1.46,2-4,3.1-1.64,2-1.1,3.83,1.46,6.77-4.57,4.75-5.3,4.39L298,322.18l.91,4.75,1.1,6.4,5.3,1.09,2.37-4.57,4.57-.55v2.56l2,1.65,2.92-.37,1.64-3.84,4.39.55,1.28,2.93,4.57,2,2.74-1.28,2.2-2.19,5.85,3.65,3.29-.36,2.56-2,2.37.74,1.65,1.64,2.56-.55,2.74,1.46h2v-6.94L345,318l-5.85-34.55-4.2-15.17,8.23-14.33,1.46-11.81L321,187.82l-10.42-11-7.86-3.48H288.3l-10.42-1.83H266.36l-15.9,7.86-8,7.5h-14l-11.25,2.19-11.33,7.5-3.47,5.66-4.21,3.29-4,2-9,1.47Z" transform="translate(-99.85 -171.55)"/><polygon id="LeftClaws" points="149.61 166.73 146.77 164.33 145.68 157.02 148.42 154.09 150.98 157.38 153.9 160.31 155 155.92 158.1 153.54 162.13 157.02 166.15 156.29 166.15 148.79 168.52 146.42 170.72 148.97 174.01 150.99 177.12 150.99 178.94 144.04 182.42 144.41 184.24 146.23 186.25 145.5 186.25 138.19 189.54 138.74 193.38 140.02 194.59 144.47 194.59 148.75 191.85 151.49 189.46 152.46 187.92 148.58 186.38 147.38 183.98 148.24 184.49 150.46 183.98 153.37 182.44 156.11 180.55 157.82 178.16 152.46 174.22 152.46 172.16 154.91 173.36 160.22 171.82 161.25 167.88 159.88 166.34 157.82 162.92 158.51 162.57 162.45 163.43 164.33 163.94 165.87 160.35 165.36 157.78 165.19 155.56 162.96 154.01 162.1 153.33 165.36 153.16 167.75 149.61 166.73"/><polygon id="RightClaws" points="205.72 164.33 205.45 162.87 207.82 158.3 212.39 157.75 212.39 160.31 214.41 161.95 217.33 161.59 218.97 157.75 223.36 158.3 224.64 161.22 229.21 163.23 231.95 161.95 234.15 159.76 240 163.42 243.29 163.05 245.84 161.04 248.22 161.77 249.87 163.42 252.43 162.87 255.17 164.33 257.18 164.33 257.18 168.78 256.07 172.89 252.81 175.29 251.44 169.47 250.42 166.52 249.05 169.98 246.13 173.92 243.74 175.29 243.57 169.64 243.05 165.53 239.12 165.19 238.09 167.75 236.03 172.21 234.32 173.58 232.78 174.09 231.31 169.64 231.31 167.75 230.38 165.01 226.1 164.33 223.7 164.33 224.22 167.75 224.56 172.04 220.11 169.98 217.37 165.7 213.77 163.47 213.26 165.53 213.77 168.95 214.46 171.52 210.35 169.81 206.75 167.75 205.72 164.33"/><polygon id="Head" points="177.12 104.12 180.95 111.69 184.61 117.53 189.18 123.02 191.74 125.21 198.32 127.22 203.07 127.22 208.37 122.47 214.04 118.63 221.86 113.96 227.98 106.17 233.27 99.49 236.45 94.27 243.29 82.37 244.75 70.56 246.35 59.97 249.41 55.52 251.36 49.95 258.59 46.06 264.71 37.99 267.5 28.8 261.1 26.02 254.14 27.14 247.18 27.14 239.67 29.36 232.43 32.15 228.86 33.99 217.41 33.54 209.34 34.93 205.45 36.6 192.08 34.09 183.18 34.93 177.12 36.32 167.59 31.31 160.64 29.64 153.12 29.08 145.68 31.59 145.68 37.99 151.18 46.62 155.35 50.51 162.03 52.74 164.81 66.09 167.04 73.89 170.13 80.01 173.16 86.41 174.27 93.92 177.12 104.12"/><polygon id="LeftWhiskers" points="185.96 82.17 181.23 79.17 175.39 77.05 170.13 76.62 163.42 76.62 158.13 75.28 155.63 76.62 157.85 80.56 166.76 82.17 174.55 82.17 181.51 84.74 177.89 86.41 173.16 86.41 167.04 86.41 162.03 88.08 155.63 91.42 155.63 95.04 159.25 95.04 165.37 91.97 170.79 91.42 175.66 91.42 179.84 90.03 180.95 95.04 177.89 95.04 175.04 96.69 164.25 98.65 157.58 101.99 154.51 103.94 156.19 106.44 161.19 106.44 166.2 103.66 170.24 103.66 176.16 100.7 180.12 99.77 183.74 96.98 183.74 90.86 183.74 87.52 185.96 82.17"/><polygon id="RightWhiskers" points="218.8 84.46 223.25 82.37 228.26 80.84 233.82 78.9 239.11 78.9 241.9 78.9 243.29 82.37 237.72 82.37 232.43 84.46 227.43 85.57 221.86 87.24 218.8 89.19 224.36 89.19 226.87 90.86 226.59 93.64 223.53 93.64 219.91 93.64 217.13 93.64 221.3 96.43 224.09 98.65 226.87 98.65 228.54 101.99 231.31 101.99 231.31 105.05 227.98 106.17 225.2 103.38 221.58 100.88 218.8 99.77 215.46 97.26 214.35 92.53 216.29 87.52 218.8 84.46"/><polygon id="LeftEye" points="178.45 73.89 182.62 70.83 189.58 72.36 191.25 76.62 185.96 77.05 182.34 75.28 180.39 73.45 178.45 73.89"/><polygon id="RightEye" points="229.86 75.11 225.68 72.05 218.72 73.58 217.06 77.84 222.34 78.27 225.96 76.5 227.92 74.67 229.86 75.11"/></svg>