<svg id="TommieSmith" xmlns="http://www.w3.org/2000/svg" viewBox="0 0 112.67 442.46"><title>BlackPowerSaluteOlympics68</title><polygon id="RightHand" points="9.96 2.56 9.96 7.68 12.52 9.13 12.52 16.49 15.24 21.93 17.96 23.38 24.05 22.57 24.85 18.25 23.09 11.85 23.57 4.32 18.61 0 9.96 2.56"/><polygon id="Torso" points="47.1 111.91 44.54 123.44 43.58 130.49 42.78 140.41 41.34 150.82 41.34 163.31 39.1 169.23 39.1 175.31 43.1 181.08 49.51 185.08 56.55 187.96 64.39 189.72 72.24 188.6 79.77 187.96 84.09 185.24 86.17 183.64 86.17 178.2 81.37 140.25 79.61 128.56 89.85 119.6 93.53 118.16 100.1 126.64 101.06 134.17 101.06 124.4 97.38 116.56 90.33 109.51 83.61 102.63 79.92 101.35 78 95.1 73.04 92.22 70.08 92.22 68.88 93.98 47.1 111.91"/><polygon id="LeftArm" points="18.61 28.34 17.4 25.14 17.96 23.38 24.05 22.57 24.85 27.54 35.9 45.63 41.02 51.71 42.46 57.32 43.74 62.28 45.82 63.88 47.1 67.56 47.1 70.61 49.83 71.89 50.95 74.13 50.95 76.05 57.67 99.42 49.83 111.91 43.74 97.66 37.54 83.89 36.7 76.21 31.89 70.61 30.13 63.24 22.77 51.55 18.61 28.34"/><polygon id="RighArm" points="101.06 140.97 101.06 134.17 100.1 126.64 93.53 118.16 89.85 119.6 79.61 128.56 86.17 178.2 86.17 183.64 84.73 199.17 80.89 204.45 78.32 209.1 72.72 209.1 69.2 212.62 67.28 216.94 70.08 216.94 70.08 220.63 71.92 226.23 75.28 227.99 81.05 227.99 85.37 225.91 88.89 216.46 91.93 203.01 95.94 193.25 98.98 182.36 100.1 169.23 101.06 140.97"/><polygon id="Body" points="39.1 175.31 39.1 199.65 39.1 216.62 41.34 227.99 43.1 237.6 43.9 258.57 45.5 265.77 49.19 270.58 52.71 276.66 54.15 289.47 57.35 298.28 57.35 303.56 57.35 313.33 58.47 319.09 58.47 324.21 60.55 334.3 49.83 336.86 36.38 339.26 36.38 342.94 46.94 344.07 61.19 344.07 64.08 341.18 57.83 347.43 54.79 350.15 55.91 352.71 61.03 352.71 72.72 348.07 82.17 341.02 82.81 321.33 82.81 302.12 84.09 289.15 84.09 268.5 84.09 247.52 84.09 236 85.37 225.91 81.05 227.99 75.28 227.99 71.92 226.23 70.75 222.66 70.08 216.94 67.28 216.94 69.2 212.62 72.72 209.1 78.32 209.1 80.89 204.45 84.73 199.17 86.17 183.64 79.77 187.96 72.24 188.6 64.39 189.72 56.55 187.96 49.51 185.08 43.1 181.08 39.1 175.31"/><polygon id="Head" points="39.1 95.26 41.66 103.59 46.62 107.59 49.67 114 57.67 114 60.55 115.6 68.88 107.27 72.24 101.35 68.88 93.98 69.04 86.3 62.95 79.41 57.67 76.05 53.03 76.05 43.42 80.85 40.22 84.86 39.1 89.5 39.1 95.26"/><polygon id="SidePodium" points="0 434.57 0 338.37 36.38 362.05 112.67 359.09 112.67 434.57 36.38 442.46 0 434.57"/><polygon id="TopPodium" points="0 338.37 89.22 338.37 112.67 359.09 36.38 362.05 0 338.37"/></svg>