<svg id="BLM" xmlns="http://www.w3.org/2000/svg" viewBox="0 0 180.77 204.14"><title>blm</title><path id="main" d="M184.44,139l-6,5.37-1.49,3.37-4.58,10.33-3.22,11.28-8.06,25.52-5.64,18.27,1.88,16.11,7,18.27,7,14.23,16.38,26.59,11,11,12.09,10.47L221,319l22.29,5.64,54.26-1.35,26.59-14.5,9.67-14.51L336.2,250V209.42l-1.62-18.54-4.56-5.1-3.76,16.12q-2.42,12.35-4.84,24.71l-8.06,8-17.45-1.61-5.11-14L288.12,229l-6.45,4.57-12.09-.54-8.06-7.52L259.11,211,257,217.74l-2.42,8.87-4.54,4-13.19-1.35-5.64-11-1.88-11.55q-.84-7.83-1.69-15.66l-23.56,6-9.13-8.33-4.83,1.35v7.79l-5.64-5.38-6-16.92-2.58-14.77Q180.15,149.93,184.44,139Z" transform="translate(-155.43 -120.51)"/><path id="thumb" d="M192.76,140.92,184.44,139l-6,11.82-2.58,9.94,2.58,14.77,6,16.92,5.64,5.38,14-.81,29.55-7.52,4.57-4,2.41-5.37-2.68-7-6.72-4.71H210.76l-2.55-5.77-6.58-10.48Z" transform="translate(-155.43 -120.51)"/><polygon id="pointer" points="46.74 22.29 46.2 31.7 52.78 42.17 55.33 47.95 63.93 47.95 68.49 47.95 71.45 47.95 72.79 35.12 73.86 20.95 73.86 11.55 69.3 3.49 62.05 0 52.78 2.15 49.42 8.86 46.2 14.24 46.74 22.29"/><path id="middle" d="M238.16,126.42l-8.87,5.64v9.4l-1.07,14.17-1.34,12.82h4.29l6.72,4.71s.13,6.15.13,6.17l.14,6.18-10.56,5.56q.84,7.83,1.69,15.66l1.88,11.55,5.64,11L250,230.64l4.54-4L259.11,211l7.52-69.84-8.06-14.77-6.18-1.08-6.58,1.35-4.16-1.35Z" transform="translate(-155.43 -120.51)"/><polygon id="ring" points="134.03 9.4 122.21 9.4 111.2 20.68 103.68 90.52 106.1 105.02 114.16 112.54 126.24 113.08 132.69 108.52 135.38 98.58 143.97 39.48 148 34.38 140.21 13.43 134.03 9.4"/><path id="pinky" d="M314.71,152.74l-11.28,2.15-4,5.1-8.6,59.1,5.11,14,17.45,1.61,8.06-8c.58-2.93,1.44-7.31,2.48-12.66,1.42-7.34,1.75-9.13,2.36-12,.8-3.89,2-9.41,3.76-16.12V174.5l-6.18-9.94-3.49-8.86Z" transform="translate(-155.43 -120.51)"/></svg>