<svg id="Layer_1" data-name="Layer 1" xmlns="http://www.w3.org/2000/svg" viewBox="0 0 160.2 323.36"><title>kaepernick</title><polygon id="chest" points="33.68 53.32 9.44 64.68 9.44 92.71 29.89 88.92 49.59 117.71 49.59 126.04 59.44 121.5 112.47 138.92 112.47 123.77 128.38 96.12 154.13 92.71 160.2 69.23 139.74 53.32 92.77 53.32 83.29 75.29 63.98 76.8 51.86 63.17 33.68 53.32"/><polygon id="neck" points="51.86 63.17 57.73 60.29 87.09 55.17 92.77 53.32 83.29 75.29 63.98 76.8 51.86 63.17"/><path id="rightarm" d="M186.76,235.24,180.7,211l3-8.85-7.58-6.3,20.46-3.79,19.69,28.79v8.33l19.83,12.88,35.81,9.47,26.31,16,7.31,16.8H277.42L261,263.9l-32.15-5.84s-24.48-10.6-25.58-10.6S186.76,235.24,186.76,235.24Z" transform="translate(-166.71 -103.14)"/><polygon id="leftarm" points="147.61 96.12 154.13 92.71 128.38 96.12 112.47 123.77 112.47 138.92 59.44 121.5 49.59 126.04 20.04 132.1 20.04 143.96 30.33 148.39 64.67 140.67 105.23 148.39 131.54 164.42 137.02 143.23 143.59 128.56 142.86 106.69 147.61 96.12"/><polygon id="legs" points="23.02 157.11 30.33 148.39 41.02 145.99 62.11 154.92 94.27 160.77 110.71 181.23 126.42 181.23 126.42 223.25 111.08 280.61 104.86 284.63 87.09 279.51 79.29 264.53 81.48 233.84 77.24 255.03 67.96 257.59 61.75 247.73 62.48 240.78 66.5 218.5 74.72 215.31 79.29 215.31 74.14 197.3 49.69 194.75 36.9 264.53 42.38 288.28 34.34 316.78 29.96 323.36 7.31 320.44 0 312.4 9.44 298.51 17.54 290.11 15.71 283.17 17.9 279.88 11.69 196.57 23.02 157.11"/><polygon id="face" points="51.88 36.54 51.88 48.96 57.73 60.29 65.4 66.5 77.24 66.5 83.29 62.84 87.09 55.17 89.15 46.77 87.09 36.54 84.82 27.04 74.14 24.11 63.21 24.11 54.08 28.5 51.88 36.54"/><polygon id="hair" points="33.68 53.32 25.94 42.38 25.94 27.04 31.42 12.06 46.77 2.19 63.21 0 77.24 0 92.77 1.46 105.23 9.5 114 18.63 114 26.66 114 37.27 110.71 45.31 100.84 51.15 92.77 53.32 87.09 55.17 89.15 46.77 87.09 36.54 84.82 27.04 74.14 24.11 63.21 24.11 54.08 28.5 51.88 36.54 51.88 48.96 57.73 60.29 51.86 63.17 33.68 53.32"/></svg>