<svg id="martin" xmlns="http://www.w3.org/2000/svg" viewBox="0 0 711.22 604.3">
  <title>martin_luther_king_jr</title>
  <g>
    <path d="M993.47,582.92l13.23-.41s8.37,61.25,16,71.76c2.59,3.59,14.07-4.49,17.6-1.82,19.15,14.49,16.47,94.63,16.47,94.63l-597.58-3.64L442.92,743S318.67,599.85,357,560.7c30.88-31.57,38.87-83,105.44-83.46,42.53-.28,42.53-14.41,42.53-14.41s-11.77-32.81-8-38c0,0-26.77-17.5-22-32.95s-12.35-45.64-12.35-45.64-3.77-7.89,0-47,10.64-53.54,10.64-53.54-0.69-13,9.27-25.74,8.58-18.19,22.65-27.11,24-20.59,43.58-24.37a215.43,215.43,0,0,0,38.09-11.67s2.75-1,15.44-1.72,18.19-8,18.19-8,5.49-1.58,20.25,2.54,38.13,2.73,42.94,13l26.92,10.65c0.26,0.11.19,1.31-.08,1.25L673,167.14s-3.09,6.86-19.22,1.37-24.37,32.26-4.8,42.21c0,0,.06,3.25-5.44,12.16s5.88,4.74,5.88,4.74,8.35,5.12,3.22,6.64-11.76-1.33-7.59,5.31-4.55,11-11.19,10.81-11.95,31.3-8.72,34.9,1.9,33-1.9,40.4-10.24-.95-12.71-11.38l-16.69-10.05s0.95,10.81-22.95,6.07-23.71,10.05-25.42,21.05,7,32.62,9.48,34.9,15.55,12.33,19,13.28,12.33,1.14,12.33,1.14,6.64,5.5,12.9,6.07,10.62,1.33,15-5.88,6.45-.57,4.93,3.41,0.57,16.69-36,21.05l-25.79,7s4.74,4.55,9.48,9.67-4.55,6.45,2.66,13.66,0.19,21.62-2.47,22,8.35,11.76,26.17,15.55c0,0,30.54,14.79,40.78,20.48s33.38,17.64,41.16,28.83,39.63,5.75,39.63,5.75l6.1-10.74-11.23,1.22-57.6-33.44s19.28,9,41.74,8.54,51.5-2,60,2.2S790.8,488,790.8,488s3.17-29.29-3.17-37.34,12.45-16.84,12.45-16.84,18.79-31.29,24.9-22.72,11,2,11,2v-4.88l12.69,5.86,11.47-6.35s18.55,2.2,32,8.05,34.9,3.42,34.9,3.42,30.75,7.32,32.95,14.89,9.85,18.9,9.27,27.58,2,79.32,2,79.32l2.86,8.87" transform="translate(-347.64 -144.8)" fill="none" stroke="#fff" stroke-miterlimit="10" stroke-width="4"/>
    <path d="M996,587.15l-31.56-53.66,4.25-63.12s-3.41-36.24-23.64-42-43.86-5.25-43.86-5.25-9.19-10-32.57-11.56c0,0-6.3-2.36-10,4.46,0,0-4.38,2.29-6.39,5.67,0,0-3.44,1.94-.88,21.57,0,0,3.43,29,7,34,5.5,7.66,10.26,10.89,12.61-5.52,1.57-11-1.84-36.77-1.84-36.77s17.07-6.57,21.54-12.08,0,6.57-2.89,6.83-12.34,2.89-12.61,12.87,0.53,39.66.53,39.66,5,9.72,17.86,7.88,11.82-4.2,11.82-4.2l-0.79-43.6s12.08-13.66,16.55-13.66-12.61,14.71-12.61,14.71v38.87s6,6,15.76,2.89,8.67-19.44,8.67-19.44l2.36-9.19,8.4-1.84s-6.83,6.57-6.57,12.87l15.5,1.84-15.23,2.1s1.58,15-12.61,16.55-12.61,2.36-12.61,2.36l7.35,16.81s-2.36,26.53,2.1,31c0,0,2.63,17.86,0,21.27s2.63,5,18.38-.53,17.33-3.68,17.33-3.68l4.73-3.94s15,0.79-3.15,7.62-42.55,10.77-42.55,10.77,6.83-64.35-24.16-72.23l-8.93-1.58-13.13-11s-6-3.41-7.88,3.15A41,41,0,0,0,861,500.83s-0.79-18.65-6.83-20c0,0-1.58-47-10.51-54.1a29.4,29.4,0,0,0-19.44-6l-1.84,53.05s-1.05,29.94,4.73,37.56c0,0,1.31,8.67,6.83,12.34s13.13,12.08,16.55,18.91,19.7,29.68,41.76,30.2l29.42,47.27L982,604.49l14-17.34" transform="translate(-347.64 -144.8)" fill="none" stroke="#fff" stroke-miterlimit="10" stroke-width="4"/>
    <path d="M1022.66,654.27" transform="translate(-347.64 -144.8)" fill="none" stroke="#231f20" stroke-miterlimit="10"/>
    <path d="M586.71,477.68s33.61,18.14,56,60.81S695,621.17,695,621.17s-3.73-31.74-4.27-50.94c0,0-6.4-5.07-12.8-1.33,0,0-10.67-10.94-15.47-21.07l-5.07-.53,17.34-20.8s-24.27-24.8-40.54-30.14S586.71,477.68,586.71,477.68Z" transform="translate(-347.64 -144.8)" fill="none" stroke="#fdfdfe" stroke-miterlimit="10" stroke-width="3"/>
    <path d="M697.94,531s-3.47,3.73,13.07,21.34a68.88,68.88,0,0,1,0,18.14c-1.33,9.87,28,87.75,35.74,91l1.87-19.74S729.94,616.37,727.54,607s-13.42-76.9-13.42-76.9Z" transform="translate(-347.64 -144.8)" fill="none" stroke="#fff" stroke-miterlimit="10" stroke-width="3"/>
    <path d="M906.57,614.76s-4.9,6.45-2.84,12.13,11.1,28,11.1,28l37.42,9.29h38.19s-10.58-25.42-11.1-31.61-0.77-22.71-.77-22.71-21.16,4.9-33.93,7.35-29.8,8.26-33.29,6.58S906.57,614.76,906.57,614.76Z" transform="translate(-347.64 -144.8)" fill="none" stroke="#fff" stroke-miterlimit="10" stroke-width="2"/>
    <path d="M1005.46,586.43l-23.74,28.16s-2.42,25.1,7.49,37.2,8.5,11.86,8.5,11.86l21.47-5.7-8.9-48.47-4.14-24.12Z" transform="translate(-347.64 -144.8)" fill="none" stroke="#fff" stroke-miterlimit="10" stroke-width="2"/>
    <path d="M582.2,332.9s-12.82,6.59-7.19,10.43c0,0,2.76-1,3.59,4s7.55,4.55,8.87-.48,4.43-19.17-3-23.13-14.5-11.14-18.81-10.9-10.31.36-12.7,8.15-3.83,17.74,0,23.73a125,125,0,0,0,7.67,10.66S558,347,558.35,341.77s-3.48-10.9-1.8-15.94,4.19-9,10.43-3.24a38.43,38.43,0,0,0,13.78,8.63C583.64,332.3,582.2,332.9,582.2,332.9Z" transform="translate(-347.64 -144.8)" fill="none" stroke="#fff" stroke-miterlimit="10" stroke-width="2"/>
    <path d="M594.18,341s0.6-4.67,4.43-4,1.08,12,1.08,12a27.72,27.72,0,0,0,7.31,5.51c4.43,2.28,2.88,9.59,2.88,9.59s-14.86,1.92-15.7,1-1.44-1.56-2.28-1.56,1.44-5-3.59-6.11c0,0-1.35-1.24.94-6.25s2.05-7.29,3.49-8.72Z" transform="translate(-347.64 -144.8)" fill="none" stroke="#fff" stroke-miterlimit="10" stroke-width="2"/>
    <path d="M577,315.11s19.83-1.49,22,2.9-1.14,10.43-1.14,10.43-4.39,1.65-10-4.3A53.35,53.35,0,0,0,577,315.11Z" transform="translate(-347.64 -144.8)" fill="none" stroke="#fff" stroke-miterlimit="10"/>
    <path d="M581.42,351.66s-0.33,7-4.38,7.91-2,6.84,2.19,4.09,5.92-8,4.68-11S581.42,351.66,581.42,351.66Z" transform="translate(-347.64 -144.8)" fill="none" stroke="#fff" stroke-miterlimit="10"/>
    <path d="M596.52,368h8s-3.82,5.15-1.51,7,9,2.31,9.68,2.31,1.24,2.4,1.24,2.4-3,6.93-8.26,6.57-10.3-6.13-8.44-11.19c0,0,4.31-1.78,1.8-4.44Z" transform="translate(-347.64 -144.8)" fill="none" stroke="#fff" stroke-miterlimit="10"/>
    <path d="M576.27,333s-12.52,3.46-15.54,7-0.44,14.74,4.53,19.81,4.67,3.64,4.67,3.64,0.3-5.15-4.85-11S576.27,334,576.27,334v-1Z" transform="translate(-347.64 -144.8)" fill="none" stroke="#fff" stroke-miterlimit="10"/>
    <path d="M764.81,272.86s-20.45-2.32-35,9.84c0,0,0,1.76-11.18,3-5.93.63-5.53-2.42-5.53-2.42s-1.12,5.79,4.06,6.39,21.74,0.52,21.74.52-2.78.15-2.35-5.38,16-8.05,16-8.05Z" transform="translate(-347.64 -144.8)" fill="none" stroke="#fcfafc" stroke-miterlimit="10" stroke-width="2"/>
    <path d="M718.63,285.66" transform="translate(-347.64 -144.8)" fill="none" stroke="#231f20" stroke-miterlimit="10"/>
    <path d="M760.88,274" transform="translate(-347.64 -144.8)" fill="none" stroke="#231f20" stroke-miterlimit="10"/>
    <path d="M750.77,277.28s-9.53,1-12.9,5a5.18,5.18,0,0,0,.25,7.33L755,291.12s-4.38-4.33-4.29-9.08Z" transform="translate(-347.64 -144.8)" fill="none" stroke="#fff" stroke-miterlimit="10"/>
    <path d="M760.88,252.35s4.49-8.2-2.3-11.83-12.48-6.44-18.83-5.74-12.4,2.62-17.84,7.48c-5,4.47-5.34,3.79-11.63,9.28-5.82,5.08-7.71,3.7-8.76,8.15s-5.93,11.62-5.93,11.62,9.72-2.46,13.58-6.09,3.82-4,10.65-6.09c8-2.44,11-5.15,15.69-8.2s6.79-5.74,15.34-1.05S760.88,252.35,760.88,252.35Z" transform="translate(-347.64 -144.8)" fill="none" stroke="#fff" stroke-miterlimit="10" stroke-width="2"/>
    <path d="M710.29,173.7S729,188.18,756.9,217.64C779.56,241.55,779,253,779,253l1.46,30.93,54.17,42.64s6.7,6.41,0,19.51-10.78,11.07-9.9,13.11,3.53,12.51,11.1,15.42c0,0-3.39,11.73.1,33.63" transform="translate(-347.64 -144.8)" fill="none" stroke="#fff" stroke-miterlimit="10" stroke-width="4"/>
    <path d="M832.12,351.11c2.07-2.34-5.21,3.94-11.18,5.58s-15.73-3.08-17-3.6-2-2.36,2.88-4.42,4.93,0.1,8,2,10.38,3.29,11.72-2,0.1-7.2-3.19-9.77-10.07,0-10.07,0-2,5.65-7.81,5.24-9-8.74-6.07-14.08,14.61-3.59,14.61-3.59-19.8-7.68-29.19,2S789,359.1,807.58,361c0,0,1.37,1.88-4.61,8s-14.51,30.56-15.53,36l4.78,1,14.85-25.09L826,370.86s3.26,3.66,6.83,3.76c3.28,0.09,3.56.3,3.56,0.3S821,363.73,832.12,351.11Z" transform="translate(-347.64 -144.8)" fill="none" stroke="#fff" stroke-miterlimit="10" stroke-width="2"/>
    <path d="M833.31,405.25s-3.81-15.83-10.62-16.63-22.74,11.72-22.74,11.72,12.12-3.44,17.83-3.42S833.31,405.25,833.31,405.25Z" transform="translate(-347.64 -144.8)" fill="none" stroke="#fff" stroke-miterlimit="10"/>
    <path d="M750.77,277.28s-0.5,5.19.08,7.29,3.09,5.29,3.09,5.29a19.53,19.53,0,0,0,3.48-.59c2.06-.88,3.46-4.16,2.7-9.51,0,0-.51-2.59-2.15-3.14A8.76,8.76,0,0,0,750.77,277.28Z" transform="translate(-347.64 -144.8)" fill="#fff"/>
  </g>
</svg>
