<svg id="Layer_1" data-name="Layer 1" xmlns="http://www.w3.org/2000/svg" viewBox="0 0 210.64 232.44"><title>RosaParks</title><polygon points="79.39 78.11 84.33 94.77 95.7 98.56 107.82 98.56 113.88 88.33 114.97 85.88 131.97 86.52 133.77 83.3 135.31 79.57 135.31 77.25 137.76 76.74 138.79 75.32 137.89 73.39 139.56 72.36 140.08 70.3 139.31 68.5 138.66 65.53 143.81 65.02 143.81 62.44 140.85 57.42 139.56 54.59 139.69 52.92 140.34 50.86 140.98 49.31 140.98 47.51 141.37 44.29 140.72 41.72 138.4 27.81 140.46 23.82 140.21 20.47 125.92 11.33 114.97 4.76 114.07 1.42 109.05 2.83 101.71 0 92.44 3.6 69.14 14.81 65.02 17.9 61.15 22.66 54.84 27.81 52.53 41.46 55.49 45.96 54.59 49.28 50.98 50.99 48.02 57.29 49.31 64.76 50.47 67.72 49.18 71.72 52.53 78.67 58.06 81.11 64.37 77.77 69.91 71.72 74.54 69.4 78.41 72.49 79.39 78.11"/><path d="M220.43,186.05l8.24-3.86,6.31-3.35,5.53-6.05,4.64-2.32,3.86,3.09,1,5.62,4.94,16.67,11.36,3.79h12.12l6.06-10.23,1.1-2.46,17,.65,8.11,3,1,3.35,6.18,1.54,7.47,6.05,4.89,2.06,5.67,7.08,4.25,6.31,3.73,6.57,4.77,8.5,8.25,5.13-2.75,7.34,2.75,5.51v9.63l3.67,8.72,8.26,5,12.39,13.77L378.49,300,366.1,311l-12.85,6H341.78L250,333.52l-34.42-9.64-19.73-11-11-6.89L176.11,283l-5.5-25.24,3.21-23.87,6.88-22,9.18-15.61,9.18-6.42Z" transform="translate(-170.61 -101.08)"/><polygon points="111.97 214.54 98.21 204.45 106.92 194.81 113.35 194.81 119.31 196.65 145.93 200.78 153.27 204.68 158.78 209.04 160.62 214.54 156.49 219.13 150.06 221.89 143.81 221.89 129.41 221.89 121.61 221.89 111.97 214.54"/><polygon points="157.4 192.52 151.9 199.4 145.93 200.78 153.27 204.68 158.78 209.04 160.62 214.54 168.88 209.5 173.93 201.24 176.22 192.97 167.5 187.01 161.53 187.47 157.4 192.52"/></svg>