<svg xmlns="http://www.w3.org/2000/svg">
    <symbol id="Panther" viewBox="0 0 250 175.29">
        <title>blackPanthersLogo</title>
        <path id="Body" d="M166.52,223.24l-12.12,4.54-32.58-2.27-12.88-2.27V211.12l9.09-6.06h37.12l-9.09-10.61H122.58l-13.64,6.06-9.09,10.61v11.36l5.3,9.09,10.78,2.87,10.78,3.47h10.42l14.81,1.83h6.76l-1.46,4.38-2.56,4.48-.73,5.32-1.28,1.54h-4L141.88,258,134,265.51l-4.38,17.73-4,3.66-2.92,4.75L121,298.41l.74,5.85,4.75,3.84,3.47,3.11,6.76,1.46h8.6l3.29-3.66,2.74-3.29,5.12,1.47,3.29,2.19,6.72-2,5.71-4.2,5.66-3.11,4.39-2.2,4.75-4.2,5.12-2.19,10.78-7.5,3.84-1.83,4.39,1.65h6.4l6.76-4.57,4.39.91,2.74,4.57,2.74,4.39,4.75,4.94,3.11,1.82,3.29,1.47-1.64,4.75-.55,6.58-1.28,6.4-4.39,4.38-.91,4.39,3.43,5.12,3.33,2.74,2,1.65,1.28,2.55-1.09-7.31,2.74-2.92,2.56,3.29,2.92,2.92,1.1-4.38L258,325.1l4,3.47,4-.73v-7.49l2.37-2.38,2.2,2.56,3.29,2H277l1.82-7,3.48.37,1.82,1.83,2-.73v-7.31l3.29.54,3.83,1.28v-4l-1.09-3.84-3.66-4.93-3.29-3.11-6.58-5.48-3.47-4.57-.19-5.49,5.85,3.11,3.66,5.85,4.57,5.48,2.56,2.2,6.58,2h4.75l5.3-4.75,5.67-3.84,1.46,2-4,3.1-1.64,2-1.1,3.83,1.46,6.77-4.57,4.75-5.3,4.39L298,322.18l.91,4.75,1.1,6.4,5.3,1.09,2.37-4.57,4.57-.55v2.56l2,1.65,2.92-.37,1.64-3.84,4.39.55,1.28,2.93,4.57,2,2.74-1.28,2.2-2.19,5.85,3.65,3.29-.36,2.56-2,2.37.74,1.65,1.64,2.56-.55,2.74,1.46h2v-6.94L345,318l-5.85-34.55-4.2-15.17,8.23-14.33,1.46-11.81L321,187.82l-10.42-11-7.86-3.48H288.3l-10.42-1.83H266.36l-15.9,7.86-8,7.5h-14l-11.25,2.19-11.33,7.5-3.47,5.66-4.21,3.29-4,2-9,1.47Z" transform="translate(-99.85 -171.55)"/><polygon id="LeftClaws" points="149.61 166.73 146.77 164.33 145.68 157.02 148.42 154.09 150.98 157.38 153.9 160.31 155 155.92 158.1 153.54 162.13 157.02 166.15 156.29 166.15 148.79 168.52 146.42 170.72 148.97 174.01 150.99 177.12 150.99 178.94 144.04 182.42 144.41 184.24 146.23 186.25 145.5 186.25 138.19 189.54 138.74 193.38 140.02 194.59 144.47 194.59 148.75 191.85 151.49 189.46 152.46 187.92 148.58 186.38 147.38 183.98 148.24 184.49 150.46 183.98 153.37 182.44 156.11 180.55 157.82 178.16 152.46 174.22 152.46 172.16 154.91 173.36 160.22 171.82 161.25 167.88 159.88 166.34 157.82 162.92 158.51 162.57 162.45 163.43 164.33 163.94 165.87 160.35 165.36 157.78 165.19 155.56 162.96 154.01 162.1 153.33 165.36 153.16 167.75 149.61 166.73"/><polygon id="RightClaws" points="205.72 164.33 205.45 162.87 207.82 158.3 212.39 157.75 212.39 160.31 214.41 161.95 217.33 161.59 218.97 157.75 223.36 158.3 224.64 161.22 229.21 163.23 231.95 161.95 234.15 159.76 240 163.42 243.29 163.05 245.84 161.04 248.22 161.77 249.87 163.42 252.43 162.87 255.17 164.33 257.18 164.33 257.18 168.78 256.07 172.89 252.81 175.29 251.44 169.47 250.42 166.52 249.05 169.98 246.13 173.92 243.74 175.29 243.57 169.64 243.05 165.53 239.12 165.19 238.09 167.75 236.03 172.21 234.32 173.58 232.78 174.09 231.31 169.64 231.31 167.75 230.38 165.01 226.1 164.33 223.7 164.33 224.22 167.75 224.56 172.04 220.11 169.98 217.37 165.7 213.77 163.47 213.26 165.53 213.77 168.95 214.46 171.52 210.35 169.81 206.75 167.75 205.72 164.33"/><polygon id="Head" points="177.12 104.12 180.95 111.69 184.61 117.53 189.18 123.02 191.74 125.21 198.32 127.22 203.07 127.22 208.37 122.47 214.04 118.63 221.86 113.96 227.98 106.17 233.27 99.49 236.45 94.27 243.29 82.37 244.75 70.56 246.35 59.97 249.41 55.52 251.36 49.95 258.59 46.06 264.71 37.99 267.5 28.8 261.1 26.02 254.14 27.14 247.18 27.14 239.67 29.36 232.43 32.15 228.86 33.99 217.41 33.54 209.34 34.93 205.45 36.6 192.08 34.09 183.18 34.93 177.12 36.32 167.59 31.31 160.64 29.64 153.12 29.08 145.68 31.59 145.68 37.99 151.18 46.62 155.35 50.51 162.03 52.74 164.81 66.09 167.04 73.89 170.13 80.01 173.16 86.41 174.27 93.92 177.12 104.12"/><polygon id="LeftWhiskers" points="185.96 82.17 181.23 79.17 175.39 77.05 170.13 76.62 163.42 76.62 158.13 75.28 155.63 76.62 157.85 80.56 166.76 82.17 174.55 82.17 181.51 84.74 177.89 86.41 173.16 86.41 167.04 86.41 162.03 88.08 155.63 91.42 155.63 95.04 159.25 95.04 165.37 91.97 170.79 91.42 175.66 91.42 179.84 90.03 180.95 95.04 177.89 95.04 175.04 96.69 164.25 98.65 157.58 101.99 154.51 103.94 156.19 106.44 161.19 106.44 166.2 103.66 170.24 103.66 176.16 100.7 180.12 99.77 183.74 96.98 183.74 90.86 183.74 87.52 185.96 82.17"/><polygon id="RightWhiskers" points="218.8 84.46 223.25 82.37 228.26 80.84 233.82 78.9 239.11 78.9 241.9 78.9 243.29 82.37 237.72 82.37 232.43 84.46 227.43 85.57 221.86 87.24 218.8 89.19 224.36 89.19 226.87 90.86 226.59 93.64 223.53 93.64 219.91 93.64 217.13 93.64 221.3 96.43 224.09 98.65 226.87 98.65 228.54 101.99 231.31 101.99 231.31 105.05 227.98 106.17 225.2 103.38 221.58 100.88 218.8 99.77 215.46 97.26 214.35 92.53 216.29 87.52 218.8 84.46"/><polygon id="LeftEye" points="178.45 73.89 182.62 70.83 189.58 72.36 191.25 76.62 185.96 77.05 182.34 75.28 180.39 73.45 178.45 73.89"/><polygon id="RightEye" points="229.86 75.11 225.68 72.05 218.72 73.58 217.06 77.84 222.34 78.27 225.96 76.5 227.92 74.67 229.86 75.11"/>
    </symbol>
    <symbol id="TommieSmith" viewBox="0 0 112.67 442.46">
        <title>BlackPowerSaluteOlympics68</title>
        <polygon id="RightHand" points="9.96 2.56 9.96 7.68 12.52 9.13 12.52 16.49 15.24 21.93 17.96 23.38 24.05 22.57 24.85 18.25 23.09 11.85 23.57 4.32 18.61 0 9.96 2.56"/><polygon id="Torso" points="47.1 111.91 44.54 123.44 43.58 130.49 42.78 140.41 41.34 150.82 41.34 163.31 39.1 169.23 39.1 175.31 43.1 181.08 49.51 185.08 56.55 187.96 64.39 189.72 72.24 188.6 79.77 187.96 84.09 185.24 86.17 183.64 86.17 178.2 81.37 140.25 79.61 128.56 89.85 119.6 93.53 118.16 100.1 126.64 101.06 134.17 101.06 124.4 97.38 116.56 90.33 109.51 83.61 102.63 79.92 101.35 78 95.1 73.04 92.22 70.08 92.22 68.88 93.98 47.1 111.91"/><polygon id="LeftArm" points="18.61 28.34 17.4 25.14 17.96 23.38 24.05 22.57 24.85 27.54 35.9 45.63 41.02 51.71 42.46 57.32 43.74 62.28 45.82 63.88 47.1 67.56 47.1 70.61 49.83 71.89 50.95 74.13 50.95 76.05 57.67 99.42 49.83 111.91 43.74 97.66 37.54 83.89 36.7 76.21 31.89 70.61 30.13 63.24 22.77 51.55 18.61 28.34"/><polygon id="RighArm" points="101.06 140.97 101.06 134.17 100.1 126.64 93.53 118.16 89.85 119.6 79.61 128.56 86.17 178.2 86.17 183.64 84.73 199.17 80.89 204.45 78.32 209.1 72.72 209.1 69.2 212.62 67.28 216.94 70.08 216.94 70.08 220.63 71.92 226.23 75.28 227.99 81.05 227.99 85.37 225.91 88.89 216.46 91.93 203.01 95.94 193.25 98.98 182.36 100.1 169.23 101.06 140.97"/><polygon id="Body" points="39.1 175.31 39.1 199.65 39.1 216.62 41.34 227.99 43.1 237.6 43.9 258.57 45.5 265.77 49.19 270.58 52.71 276.66 54.15 289.47 57.35 298.28 57.35 303.56 57.35 313.33 58.47 319.09 58.47 324.21 60.55 334.3 49.83 336.86 36.38 339.26 36.38 342.94 46.94 344.07 61.19 344.07 64.08 341.18 57.83 347.43 54.79 350.15 55.91 352.71 61.03 352.71 72.72 348.07 82.17 341.02 82.81 321.33 82.81 302.12 84.09 289.15 84.09 268.5 84.09 247.52 84.09 236 85.37 225.91 81.05 227.99 75.28 227.99 71.92 226.23 70.75 222.66 70.08 216.94 67.28 216.94 69.2 212.62 72.72 209.1 78.32 209.1 80.89 204.45 84.73 199.17 86.17 183.64 79.77 187.96 72.24 188.6 64.39 189.72 56.55 187.96 49.51 185.08 43.1 181.08 39.1 175.31"/><polygon id="Head" points="39.1 95.26 41.66 103.59 46.62 107.59 49.67 114 57.67 114 60.55 115.6 68.88 107.27 72.24 101.35 68.88 93.98 69.04 86.3 62.95 79.41 57.67 76.05 53.03 76.05 43.42 80.85 40.22 84.86 39.1 89.5 39.1 95.26"/><polygon id="SidePodium" points="0 434.57 0 338.37 36.38 362.05 112.67 359.09 112.67 434.57 36.38 442.46 0 434.57"/><polygon id="TopPodium" points="0 338.37 89.22 338.37 112.67 359.09 36.38 362.05 0 338.37"/>
    </symbol>
    <symbol id="kaepernick" viewBox="0 0 160.2 323.36">
        <title>kaepernick</title>
        <polygon points="33.68 53.32 9.44 64.68 9.44 92.71 29.89 88.92 49.59 117.71 49.59 126.04 59.44 121.5 112.47 138.92 112.47 123.77 128.38 96.12 154.13 92.71 160.2 69.23 139.74 53.32 92.77 53.32 83.29 75.29 63.98 76.8 51.86 63.17 33.68 53.32"/><path d="M186.76,235.24,180.7,211l3-8.85-7.58-6.3,20.46-3.79,19.69,28.79v8.33l19.83,12.88,35.81,9.47,26.31,16,7.31,16.8H277.42L261,263.9l-32.15-5.84s-24.48-10.6-25.58-10.6S186.76,235.24,186.76,235.24Z" transform="translate(-166.71 -103.14)"/><polygon points="147.61 96.12 154.13 92.71 128.38 96.12 112.47 123.77 112.47 138.92 59.44 121.5 49.59 126.04 20.04 132.1 20.04 143.96 30.33 148.39 64.67 140.67 105.23 148.39 131.54 164.42 137.02 143.23 143.59 128.56 142.86 106.69 147.61 96.12"/><polygon points="23.02 157.11 30.33 148.39 41.02 145.99 62.11 154.92 94.27 160.77 110.71 181.23 126.42 181.23 126.42 223.25 111.08 280.61 104.86 284.63 87.09 279.51 79.29 264.53 81.48 233.84 77.24 255.03 67.96 257.59 61.75 247.73 62.48 240.78 66.5 218.5 74.72 215.31 79.29 215.31 74.14 197.3 49.69 194.75 36.9 264.53 42.38 288.28 34.34 316.78 29.96 323.36 7.31 320.44 0 312.4 9.44 298.51 17.54 290.11 15.71 283.17 17.9 279.88 11.69 196.57 23.02 157.11"/><polygon points="51.88 36.54 51.88 48.96 57.73 60.29 65.4 66.5 77.24 66.5 83.29 62.84 87.09 55.17 89.15 46.77 87.09 36.54 84.82 27.04 74.14 24.11 63.21 24.11 54.08 28.5 51.88 36.54"/><polygon points="51.86 63.17 57.73 60.29 87.09 55.17 92.77 53.32 83.29 75.29 63.98 76.8 51.86 63.17"/><polygon points="33.68 53.32 25.94 42.38 25.94 27.04 31.42 12.06 46.77 2.19 63.21 0 77.24 0 92.77 1.46 105.23 9.5 114 18.63 114 26.66 114 37.27 110.71 45.31 100.84 51.15 92.77 53.32 87.09 55.17 89.15 46.77 87.09 36.54 84.82 27.04 74.14 24.11 63.21 24.11 54.08 28.5 51.88 36.54 51.88 48.96 57.73 60.29 51.86 63.17 33.68 53.32"/>
    </symbol>
    <symbol id="RosaParks" viewBox="0 0 210.64 232.44">
        <title>RosaParks</title>
        <polygon points="79.39 78.11 84.33 94.77 95.7 98.56 107.82 98.56 113.88 88.33 114.97 85.88 131.97 86.52 133.77 83.3 135.31 79.57 135.31 77.25 137.76 76.74 138.79 75.32 137.89 73.39 139.56 72.36 140.08 70.3 139.31 68.5 138.66 65.53 143.81 65.02 143.81 62.44 140.85 57.42 139.56 54.59 139.69 52.92 140.34 50.86 140.98 49.31 140.98 47.51 141.37 44.29 140.72 41.72 138.4 27.81 140.46 23.82 140.21 20.47 125.92 11.33 114.97 4.76 114.07 1.42 109.05 2.83 101.71 0 92.44 3.6 69.14 14.81 65.02 17.9 61.15 22.66 54.84 27.81 52.53 41.46 55.49 45.96 54.59 49.28 50.98 50.99 48.02 57.29 49.31 64.76 50.47 67.72 49.18 71.72 52.53 78.67 58.06 81.11 64.37 77.77 69.91 71.72 74.54 69.4 78.41 72.49 79.39 78.11"/><path d="M220.43,186.05l8.24-3.86,6.31-3.35,5.53-6.05,4.64-2.32,3.86,3.09,1,5.62,4.94,16.67,11.36,3.79h12.12l6.06-10.23,1.1-2.46,17,.65,8.11,3,1,3.35,6.18,1.54,7.47,6.05,4.89,2.06,5.67,7.08,4.25,6.31,3.73,6.57,4.77,8.5,8.25,5.13-2.75,7.34,2.75,5.51v9.63l3.67,8.72,8.26,5,12.39,13.77L378.49,300,366.1,311l-12.85,6H341.78L250,333.52l-34.42-9.64-19.73-11-11-6.89L176.11,283l-5.5-25.24,3.21-23.87,6.88-22,9.18-15.61,9.18-6.42Z" transform="translate(-170.61 -101.08)"/><polygon points="111.97 214.54 98.21 204.45 106.92 194.81 113.35 194.81 119.31 196.65 145.93 200.78 153.27 204.68 158.78 209.04 160.62 214.54 156.49 219.13 150.06 221.89 143.81 221.89 129.41 221.89 121.61 221.89 111.97 214.54"/><polygon points="157.4 192.52 151.9 199.4 145.93 200.78 153.27 204.68 158.78 209.04 160.62 214.54 168.88 209.5 173.93 201.24 176.22 192.97 167.5 187.01 161.53 187.47 157.4 192.52"/>
    </symbol>
    <symbol id="AngelaDavis" viewBox="0 0 314.72 304.26">
        <title>AngelaDavis</title>
        <polygon id="Face" points="152.4 254.33 140.54 235.39 135.92 217.06 132.69 209.51 134.07 193.5 135.77 185.18 139.62 175.63 144.24 170.4 152.71 166.24 162.41 163.47 169.19 158.39 179.2 153 196.75 151 203.53 147.3 211.38 144.68 219.39 146.38 228.32 153.92 234.02 151.92 238.64 152.84 244.03 158.39 244.49 165.47 249.57 181.64 251.42 192.11 247.79 221.15 241.87 240.75 236.6 254.33 231.69 262.22 226.76 267.87 220.14 271.8 210.81 274.5 202.95 274.5 189.94 272.29 180.11 268.36 172.44 266.64 162.92 261 152.4 254.33"/><polygon id="Neck" points="138.3 255.15 136.08 273.44 153.69 289.25 171.51 300.06 193.93 304.26 204.94 301.66 214.95 297.66 217.75 292.65 219.95 278.04 220.14 271.8 210.81 274.5 202.95 274.5 191.68 272.59 180.11 268.36 172.44 266.64 152.4 254.33 138.3 255.15"/><polygon id="Lips" points="171.96 231.9 182.7 230.5 187.43 229.49 193.45 228.85 196.51 227.54 199.75 227.17 202.71 226.43 205.68 226.43 208.55 227.17 210.4 225.78 212.81 224.76 216.52 224.02 220.14 224.02 223.56 224.39 227.64 225.78 230.42 226.34 233.2 227.96 229.03 229.58 226.57 229.34 224.31 229.34 223.05 229.03 219.6 228.85 215.29 229.08 210.64 230.58 209.83 230.91 205.21 231.04 201.27 232.26 200.14 232.62 196.9 232.78 194.72 233.39 194.33 234.56 191.09 233.9 188.13 234.56 184.09 235.04 180.01 235.04 175.2 234.56 173.07 234.03 178.11 236.62 183.16 238.1 187.15 239.12 191.68 240.07 195.3 241.07 199.01 241.44 202.57 241.99 205.4 241.99 207.44 241.99 210.4 241.44 213.74 240.28 216.15 240.28 218.19 239.21 220.6 238.19 222.54 237.27 223.31 235.95 225.63 233.95 226.47 232.82 228.47 231.52 230.51 230.13 231.81 229.39 233.06 228.34 232.68 230.01 231.69 232.16 231.03 234.56 229.87 237.2 228.96 239.92 228.05 241.99 226.76 243.89 224.83 245.87 223.01 247.53 220.14 249.01 217.23 249.92 215 250.66 211.94 251.32 209.38 251.32 206.41 251.82 203.68 251.82 200.95 251.82 197.9 251.24 195.67 250.58 192.78 249.84 190.38 248.93 187.49 247.69 184.68 245.21 182.28 243.56 179.72 241.33 177.08 239.76 175.01 237.92 173.28 236.21 171.96 234.14 170.88 232.49 171.96 231.9"/><polygon id="Teeth" points="188.13 235.34 189.31 239.4 191.68 240.07 194.39 238.89 194.39 235.34 194.99 238.73 195.9 240.07 198.37 240.28 200.74 240.28 201.43 239.46 201.43 237.49 201.11 235.89 200.84 234.57 201.43 233.97 201.43 235.07 201.7 236.44 201.7 238.04 201.93 239.27 203.33 240.28 207.73 240.28 210.76 239.32 210.04 233.97 211.32 233.25 211.96 235.24 211.96 237.48 213.36 238.78 216.94 238.34 219.63 238.11 220.41 236.76 220.41 234.31 219.4 231.62 221.64 235.95 223.31 235.95 224.19 233.88 224.19 232.29 224.19 230.69 224.56 231.56 224.42 233.03 224.56 233.76 224.84 233.97 225.63 233.95 226.47 232.82 226.76 231.29 226.76 230.27 226.57 229.34 224.31 229.34 223.05 229.03 219.6 228.85 218.32 229.08 215.29 229.08 212.93 229.98 210.64 230.58 210.98 232.76 211.17 233.14 210.03 233.81 209.83 230.91 205.21 231.04 202.84 231.77 201.27 232.26 201.22 233.56 200.14 232.62 196.9 232.78 194.72 233.39 194.33 234.56 192.82 233.95 191.09 233.9 189.07 234.56 188.13 235.34"/><polygon id="Hair" points="71.02 24.78 86.55 11.83 104.67 11.83 121.31 3.33 140.17 0 170.87 0 196.01 2.96 215.98 6.29 238.17 14.05 249.64 21.08 259.99 30.69 277.74 46.97 286.62 63.98 292.17 71.37 298.08 86.53 308.07 108.35 311.39 120.93 314.72 143.12 314.72 164.94 309.18 181.58 304 203.18 296.6 220.04 287.73 233.35 267.39 240.75 248.53 240.75 241.87 240.75 247.79 221.15 250.34 203.18 251.42 192.11 249.57 181.64 246.96 173.17 244.49 165.47 244.03 158.39 238.64 152.84 234.02 151.92 228.32 153.92 219.39 146.38 211.38 144.68 203.53 147.3 196.75 151 179.2 153 169.19 158.39 162.41 163.47 152.71 166.24 144.24 170.4 139.62 175.63 135.77 185.18 134.07 193.5 132.69 209.51 135.92 217.06 138.54 228.15 140.54 235.39 144.85 242.32 152.4 254.33 133.47 255.43 120.43 255.43 109.22 257.52 98.79 261.43 82.88 263.52 72.45 263.52 53.4 263.52 43.74 254.6 27.27 239.27 15.9 218.25 8.04 196.1 0 175.65 0 152.36 3.98 122.82 8.04 100.09 15.34 78.51 30.81 48.42 44.05 32.7 57.3 27.73 71.02 24.78"/>
    </symbol>

  <!-- The Following Icon was added by Sofia Trepp -->
  <symbol id="martin" viewBox="0 0 711.22 604.3">
  <title>martin_luther_king_jr</title>
  <g>
    <path d="M993.47,582.92l13.23-.41s8.37,61.25,16,71.76c2.59,3.59,14.07-4.49,17.6-1.82,19.15,14.49,16.47,94.63,16.47,94.63l-597.58-3.64L442.92,743S318.67,599.85,357,560.7c30.88-31.57,38.87-83,105.44-83.46,42.53-.28,42.53-14.41,42.53-14.41s-11.77-32.81-8-38c0,0-26.77-17.5-22-32.95s-12.35-45.64-12.35-45.64-3.77-7.89,0-47,10.64-53.54,10.64-53.54-0.69-13,9.27-25.74,8.58-18.19,22.65-27.11,24-20.59,43.58-24.37a215.43,215.43,0,0,0,38.09-11.67s2.75-1,15.44-1.72,18.19-8,18.19-8,5.49-1.58,20.25,2.54,38.13,2.73,42.94,13l26.92,10.65c0.26,0.11.19,1.31-.08,1.25L673,167.14s-3.09,6.86-19.22,1.37-24.37,32.26-4.8,42.21c0,0,.06,3.25-5.44,12.16s5.88,4.74,5.88,4.74,8.35,5.12,3.22,6.64-11.76-1.33-7.59,5.31-4.55,11-11.19,10.81-11.95,31.3-8.72,34.9,1.9,33-1.9,40.4-10.24-.95-12.71-11.38l-16.69-10.05s0.95,10.81-22.95,6.07-23.71,10.05-25.42,21.05,7,32.62,9.48,34.9,15.55,12.33,19,13.28,12.33,1.14,12.33,1.14,6.64,5.5,12.9,6.07,10.62,1.33,15-5.88,6.45-.57,4.93,3.41,0.57,16.69-36,21.05l-25.79,7s4.74,4.55,9.48,9.67-4.55,6.45,2.66,13.66,0.19,21.62-2.47,22,8.35,11.76,26.17,15.55c0,0,30.54,14.79,40.78,20.48s33.38,17.64,41.16,28.83,39.63,5.75,39.63,5.75l6.1-10.74-11.23,1.22-57.6-33.44s19.28,9,41.74,8.54,51.5-2,60,2.2S790.8,488,790.8,488s3.17-29.29-3.17-37.34,12.45-16.84,12.45-16.84,18.79-31.29,24.9-22.72,11,2,11,2v-4.88l12.69,5.86,11.47-6.35s18.55,2.2,32,8.05,34.9,3.42,34.9,3.42,30.75,7.32,32.95,14.89,9.85,18.9,9.27,27.58,2,79.32,2,79.32l2.86,8.87" transform="translate(-347.64 -144.8)" stroke="#fff" stroke-miterlimit="10" stroke-width="4"/>
    <path d="M996,587.15l-31.56-53.66,4.25-63.12s-3.41-36.24-23.64-42-43.86-5.25-43.86-5.25-9.19-10-32.57-11.56c0,0-6.3-2.36-10,4.46,0,0-4.38,2.29-6.39,5.67,0,0-3.44,1.94-.88,21.57,0,0,3.43,29,7,34,5.5,7.66,10.26,10.89,12.61-5.52,1.57-11-1.84-36.77-1.84-36.77s17.07-6.57,21.54-12.08,0,6.57-2.89,6.83-12.34,2.89-12.61,12.87,0.53,39.66.53,39.66,5,9.72,17.86,7.88,11.82-4.2,11.82-4.2l-0.79-43.6s12.08-13.66,16.55-13.66-12.61,14.71-12.61,14.71v38.87s6,6,15.76,2.89,8.67-19.44,8.67-19.44l2.36-9.19,8.4-1.84s-6.83,6.57-6.57,12.87l15.5,1.84-15.23,2.1s1.58,15-12.61,16.55-12.61,2.36-12.61,2.36l7.35,16.81s-2.36,26.53,2.1,31c0,0,2.63,17.86,0,21.27s2.63,5,18.38-.53,17.33-3.68,17.33-3.68l4.73-3.94s15,0.79-3.15,7.62-42.55,10.77-42.55,10.77,6.83-64.35-24.16-72.23l-8.93-1.58-13.13-11s-6-3.41-7.88,3.15A41,41,0,0,0,861,500.83s-0.79-18.65-6.83-20c0,0-1.58-47-10.51-54.1a29.4,29.4,0,0,0-19.44-6l-1.84,53.05s-1.05,29.94,4.73,37.56c0,0,1.31,8.67,6.83,12.34s13.13,12.08,16.55,18.91,19.7,29.68,41.76,30.2l29.42,47.27L982,604.49l14-17.34" transform="translate(-347.64 -144.8)"  stroke="#fff" stroke-miterlimit="10" stroke-width="4"/>
    <path d="M1022.66,654.27" transform="translate(-347.64 -144.8)" stroke="#231f20" stroke-miterlimit="10"/>
    <path d="M586.71,477.68s33.61,18.14,56,60.81S695,621.17,695,621.17s-3.73-31.74-4.27-50.94c0,0-6.4-5.07-12.8-1.33,0,0-10.67-10.94-15.47-21.07l-5.07-.53,17.34-20.8s-24.27-24.8-40.54-30.14S586.71,477.68,586.71,477.68Z" transform="translate(-347.64 -144.8)" stroke="#fdfdfe" stroke-miterlimit="10" stroke-width="3"/>
    <path d="M697.94,531s-3.47,3.73,13.07,21.34a68.88,68.88,0,0,1,0,18.14c-1.33,9.87,28,87.75,35.74,91l1.87-19.74S729.94,616.37,727.54,607s-13.42-76.9-13.42-76.9Z" transform="translate(-347.64 -144.8)" fill="none" stroke="#fff" stroke-miterlimit="10" stroke-width="3"/>
    <path d="M906.57,614.76s-4.9,6.45-2.84,12.13,11.1,28,11.1,28l37.42,9.29h38.19s-10.58-25.42-11.1-31.61-0.77-22.71-.77-22.71-21.16,4.9-33.93,7.35-29.8,8.26-33.29,6.58S906.57,614.76,906.57,614.76Z" transform="translate(-347.64 -144.8)"  stroke="#fff" stroke-miterlimit="10" stroke-width="2"/>
    <path d="M1005.46,586.43l-23.74,28.16s-2.42,25.1,7.49,37.2,8.5,11.86,8.5,11.86l21.47-5.7-8.9-48.47-4.14-24.12Z" transform="translate(-347.64 -144.8)" fill="none" stroke="#fff" stroke-miterlimit="10" stroke-width="2"/>
    <path d="M582.2,332.9s-12.82,6.59-7.19,10.43c0,0,2.76-1,3.59,4s7.55,4.55,8.87-.48,4.43-19.17-3-23.13-14.5-11.14-18.81-10.9-10.31.36-12.7,8.15-3.83,17.74,0,23.73a125,125,0,0,0,7.67,10.66S558,347,558.35,341.77s-3.48-10.9-1.8-15.94,4.19-9,10.43-3.24a38.43,38.43,0,0,0,13.78,8.63C583.64,332.3,582.2,332.9,582.2,332.9Z" transform="translate(-347.64 -144.8)" fill="none" stroke="#fff" stroke-miterlimit="10" stroke-width="2"/>
    <path d="M594.18,341s0.6-4.67,4.43-4,1.08,12,1.08,12a27.72,27.72,0,0,0,7.31,5.51c4.43,2.28,2.88,9.59,2.88,9.59s-14.86,1.92-15.7,1-1.44-1.56-2.28-1.56,1.44-5-3.59-6.11c0,0-1.35-1.24.94-6.25s2.05-7.29,3.49-8.72Z" transform="translate(-347.64 -144.8)" fill="none" stroke="#fff" stroke-miterlimit="10" stroke-width="2"/>
    <path d="M577,315.11s19.83-1.49,22,2.9-1.14,10.43-1.14,10.43-4.39,1.65-10-4.3A53.35,53.35,0,0,0,577,315.11Z" transform="translate(-347.64 -144.8)" fill="none" stroke="#fff" stroke-miterlimit="10"/>
    <path d="M581.42,351.66s-0.33,7-4.38,7.91-2,6.84,2.19,4.09,5.92-8,4.68-11S581.42,351.66,581.42,351.66Z" transform="translate(-347.64 -144.8)" fill="none" stroke="#fff" stroke-miterlimit="10"/>
    <path d="M596.52,368h8s-3.82,5.15-1.51,7,9,2.31,9.68,2.31,1.24,2.4,1.24,2.4-3,6.93-8.26,6.57-10.3-6.13-8.44-11.19c0,0,4.31-1.78,1.8-4.44Z" transform="translate(-347.64 -144.8)" fill="none" stroke="#fff" stroke-miterlimit="10"/>
    <path d="M576.27,333s-12.52,3.46-15.54,7-0.44,14.74,4.53,19.81,4.67,3.64,4.67,3.64,0.3-5.15-4.85-11S576.27,334,576.27,334v-1Z" transform="translate(-347.64 -144.8)" fill="none" stroke="#fff" stroke-miterlimit="10"/>
    <path d="M764.81,272.86s-20.45-2.32-35,9.84c0,0,0,1.76-11.18,3-5.93.63-5.53-2.42-5.53-2.42s-1.12,5.79,4.06,6.39,21.74,0.52,21.74.52-2.78.15-2.35-5.38,16-8.05,16-8.05Z" transform="translate(-347.64 -144.8)" fill="none" stroke="#fcfafc" stroke-miterlimit="10" stroke-width="2"/>
    <path d="M718.63,285.66" transform="translate(-347.64 -144.8)" fill="none" stroke="#231f20" stroke-miterlimit="10"/>
    <path d="M760.88,274" transform="translate(-347.64 -144.8)" fill="none" stroke="#231f20" stroke-miterlimit="10"/>
    <path d="M750.77,277.28s-9.53,1-12.9,5a5.18,5.18,0,0,0,.25,7.33L755,291.12s-4.38-4.33-4.29-9.08Z" transform="translate(-347.64 -144.8)" fill="none" stroke="#fff" stroke-miterlimit="10"/>
    <path d="M760.88,252.35s4.49-8.2-2.3-11.83-12.48-6.44-18.83-5.74-12.4,2.62-17.84,7.48c-5,4.47-5.34,3.79-11.63,9.28-5.82,5.08-7.71,3.7-8.76,8.15s-5.93,11.62-5.93,11.62,9.72-2.46,13.58-6.09,3.82-4,10.65-6.09c8-2.44,11-5.15,15.69-8.2s6.79-5.74,15.34-1.05S760.88,252.35,760.88,252.35Z" transform="translate(-347.64 -144.8)" fill="none" stroke="#fff" stroke-miterlimit="10" stroke-width="2"/>
    <path d="M710.29,173.7S729,188.18,756.9,217.64C779.56,241.55,779,253,779,253l1.46,30.93,54.17,42.64s6.7,6.41,0,19.51-10.78,11.07-9.9,13.11,3.53,12.51,11.1,15.42c0,0-3.39,11.73.1,33.63" transform="translate(-347.64 -144.8)" fill="none" stroke="#fff" stroke-miterlimit="10" stroke-width="4"/>
    <path d="M832.12,351.11c2.07-2.34-5.21,3.94-11.18,5.58s-15.73-3.08-17-3.6-2-2.36,2.88-4.42,4.93,0.1,8,2,10.38,3.29,11.72-2,0.1-7.2-3.19-9.77-10.07,0-10.07,0-2,5.65-7.81,5.24-9-8.74-6.07-14.08,14.61-3.59,14.61-3.59-19.8-7.68-29.19,2S789,359.1,807.58,361c0,0,1.37,1.88-4.61,8s-14.51,30.56-15.53,36l4.78,1,14.85-25.09L826,370.86s3.26,3.66,6.83,3.76c3.28,0.09,3.56.3,3.56,0.3S821,363.73,832.12,351.11Z" transform="translate(-347.64 -144.8)" fill="none" stroke="#fff" stroke-miterlimit="10" stroke-width="2"/>
    <path d="M833.31,405.25s-3.81-15.83-10.62-16.63-22.74,11.72-22.74,11.72,12.12-3.44,17.83-3.42S833.31,405.25,833.31,405.25Z" transform="translate(-347.64 -144.8)" fill="none" stroke="#fff" stroke-miterlimit="10"/>
    <path d="M750.77,277.28s-0.5,5.19.08,7.29,3.09,5.29,3.09,5.29a19.53,19.53,0,0,0,3.48-.59c2.06-.88,3.46-4.16,2.7-9.51,0,0-.51-2.59-2.15-3.14A8.76,8.76,0,0,0,750.77,277.28Z" transform="translate(-347.64 -144.8)" fill="#fff"/>
  </g>
</symbol>


</svg>
